<?xml version="1.0" encoding="iso-8859-1"?>
<!-- Generator: Adobe Illustrator 21.0.2, SVG Export Plug-In . SVG Version: 6.00 Build 0)  -->
<svg xmlns="http://www.w3.org/2000/svg" xmlns:xlink="http://www.w3.org/1999/xlink" version="1.1" id="Layer_1" x="0px" y="0px" viewBox="0 0 48 48" style="enable-background:new 0 0 48 48;" xml:space="preserve" width="48px" height="48px">
<path style="fill:#F97F00;" d="M15.525,12.883C17.88,11.083,20.813,10,24,10c3.046,0,5.859,0.989,8.159,2.646L36,8.038  C32.652,5.515,28.505,4,24,4c-4.707,0-9.032,1.645-12.452,4.376L15.525,12.883z"/>
<path style="fill:#424242;" d="M37.536,9.319l-3.839,4.606C36.344,16.474,38,20.044,38,24c0,7.72-6.28,14-14,14s-14-6.28-14-14  c0-3.814,1.537-7.273,4.019-9.8l-3.972-4.502C6.323,13.333,4,18.397,4,24c0,11.028,8.972,20,20,20s20-8.972,20-20  C44,18.195,41.499,12.976,37.536,9.319z"/>
<g id="Layer_3">
	<path style="fill:#424242;" d="M33,36l-8-8V15l3,8l9,9L33,36z"/>
</g>
<g id="Layer_3_2_">
	<path style="fill:#424242;" d="M15,36l8-8V15l-3,8l-9,9L15,36z"/>
</g>
</svg>
